<svg xmlns="http://www.w3.org/2000/svg" fill="none" viewBox="0 0 96 96" id="Apache--Streamline-Svg-Logos" height="24" width="24">
  <desc>
    Apache Streamline Icon: https://streamlinehq.com
  </desc>
  <path fill="url(#a)" d="M64.5579 1.44356c-1.4666.86168-3.9233 3.33671-6.8567 6.91177v.22l2.5667 4.74837.1283.0917c1.8884-2.695 3.7951-5.13341 5.7384-7.2051.1467-.16501.22-.23834.22-.23834-.0733.07333-.1466.165-.22.23834-.6233.69667-2.53 2.89671-5.39 7.2968l.33.0733s6.6917-.66 9.9184-1.21l.1834-.165c1.0267-5.75677-1.0084-8.39681-1.0084-8.39681s-2.5667-4.143395-5.6101-2.36503Z"></path>
  <path fill="url(#b)" d="M52.4763 26.5239c.825-1.5217 1.65-3.0251 2.475-4.4734.8617-1.5034 1.7417-2.9701 2.64-4.3818.055-.0733.11-.165.1467-.2566.88-1.3934 1.76-2.7134 2.6584-3.9968l-2.6951-5.07839c-.2016.23834-.4033.49501-.605.75168-.77.97171-1.5767 1.99841-2.4017 3.09841-.935 1.2467-1.8883 2.5667-2.86 3.96-.8984 1.2834-1.815 2.6401-2.7134 4.0151-.77 1.1917-1.5583 2.4017-2.3284 3.6667-.0366.055-.055.0917-.0916.1467v.2017l3.355 6.6551.1467.055c.7517-1.4667 1.5033-2.9334 2.2734-4.3634Z"></path>
  <path fill="url(#c)" d="M37.8632 59.1023c.605-1.5767 1.2467-3.1717 1.8883-4.7851.6234-1.54 1.2467-3.0984 1.9067-4.6567.6417-1.5584 1.3201-3.1167 1.9984-4.6934.6967-1.595 1.3934-3.1901 2.1084-4.7668.715-1.5583 1.43-3.1167 2.1633-4.6567.2567-.55.5317-1.1183.8067-1.6684.4584-.9533.935-1.9066 1.3934-2.8417.0183-.055.055-.0916.0733-.1466L46.7 23.9751c-.055.0917-.11.1833-.165.275-.8067 1.3384-1.6317 2.695-2.4201 4.0884-.8066 1.4117-1.595 2.8417-2.365 4.2901-.66 1.2283-1.2833 2.4567-1.9067 3.7034-.1283.2566-.2383.495-.3667.7516-.77 1.5767-1.4483 3.0801-2.0717 4.5468-.6966 1.65-1.32 3.2267-1.87 4.73-.3667.9901-.6783 1.9251-.99 2.8417-.2383.7701-.4767 1.5584-.6967 2.3284-.5317 1.8334-.9717 3.6484-1.3383 5.4818l.055.22 3.355 6.6734.11.055c.4584-1.2467.935-2.4934 1.43-3.7767.1284-.3667.275-.715.4034-1.0817Z"></path>
  <path fill="url(#d)" d="M32.4736 57.2515c-.44 2.2184-.7517 4.4368-.9167 6.6368 0 .0733-.0183.1467-.0183.2383-1.1-1.76-4.0334-3.465-4.0334-3.465 2.1084 3.0434 3.7034 6.0684 3.9417 9.0384-1.1183.2384-2.6583-.11-4.455-.7516 1.8517 1.705 3.245 2.1817 3.795 2.31-1.705.11-3.4834 1.2834-5.2801 2.6217 2.6217-1.0633 4.7301-1.485 6.2518-1.155-2.4017 6.8018-4.8034 14.3185-7.2234 22.2753.7333-.22 1.1733-.715 1.43-1.3933.4217-1.4484 3.2817-10.9085 7.7368-23.357.1283-.3484.2566-.7151.385-1.0634.0366-.0917.0733-.2017.11-.2933.4766-1.3017.9533-2.6401 1.4667-3.9968.11-.3116.2383-.6233.3483-.935v-.0183l-3.5017-6.9301c0 .0917-.0184.165-.0367.2383Z"></path>
  <path fill="url(#e)" d="M60.7442 13.5248c-.7883 1.21-1.65 2.5851-2.585 4.1434-.055.0734-.0917.165-.1467.2384-.8067 1.3567-1.65 2.8233-2.5484 4.455-.77 1.3934-1.5767 2.8967-2.42 4.5284-.7333 1.4117-1.485 2.8967-2.255 4.4918l.165.0733 8.5251-.9167.2017-.1466c2.585-1.1917 3.74-2.2734 4.8584-3.8318.2933-.4216.605-.88.8983-1.3383.9167-1.43 1.8151-2.9884 2.6034-4.5468.77-1.5033 1.4484-3.0067 1.98-4.345.33-.8617.605-1.6501.7884-2.3467.165-.6234.2933-1.21.385-1.7601-3.4467.6051-7.6818 1.1734-10.4502 1.3017Z"></path>
  <path fill="url(#f)" d="M50.4585 32.0977c-.2933.6233-.605 1.265-.9167 1.9067-.33.6967-.6783 1.43-1.0083 2.1633-.165.3667-.3484.7517-.5134 1.1184-.5316 1.1367-1.045 2.31-1.595 3.5201-.66 1.485-1.3383 3.0433-2.0167 4.6384-.66 1.54-1.32 3.1167-1.98 4.7667-.6417 1.5584-1.2834 3.1717-1.925 4.8217-.5867 1.4851-1.1734 2.9884-1.7601 4.5651-.0366.0733-.055.1467-.0916.22-.5867 1.5584-1.1589 3.1437-1.7639 4.7754-.0184.0366-.0511.132-.0694.1687l.1266.0281 2.55-.2743.144-.0595c-.055-.0183-.089-.0917-.144-.11 3.3734-.4217 7.8651-2.9517 10.7802-6.0684 1.3383-1.43 2.5484-3.1351 3.685-5.1151.8434-1.485 1.6134-3.1167 2.3651-4.9317.66-1.5767 1.2833-3.3001 1.8883-5.1518-.77.4034-1.6683.715-2.64.9167-.165.0367-.3483.0733-.5317.11-.1833.0367-.3667.055-.5317.0917 3.1534-1.21 5.1335-3.5568 6.5818-6.4168-.825.5683-2.1817 1.3017-3.795 1.6684-.22.055-.4401.0916-.6784.1283-.055 0-.11.0183-.165.0183 1.1-.4583 2.0167-.9716 2.8234-1.5767.165-.1283.33-.2566.495-.4033.2383-.22.4767-.44.6967-.66.1466-.1467.275-.2933.4216-.4583.3117-.3667.6051-.7701.8801-1.2101.0916-.1283.165-.275.2566-.4033.11-.2017.2017-.4033.2934-.605.44-.88.7883-1.6684 1.0633-2.3651.1467-.3483.2567-.66.3667-.9716.0367-.11.0733-.2384.1283-.3484.11-.33.2017-.6233.275-.8983.11-.385.165-.6967.2017-.9167-.11.0917-.22.165-.3667.2567-.9533.5683-2.585 1.0817-3.905 1.32-.1834.0367-.3117.055-.4584.0917.0122-.0123-2.9281.2986-8.8209.9326-.0367.0367-.2542.4974-.3459.7174Z"></path>
  <path fill="url(#g)" d="M36.5441 65.4457c-.4584 1.265-.935 2.5667-1.3934 3.8867 0 .0184-.0183.0367-.0183.055-.0733.1834-.1283.3667-.2017.5684-.3117.8983-.5867 1.6867-1.21 3.52 1.0267.4767 1.8517 1.7051 2.64 3.1167-.0733-1.4483-.6783-2.8233-1.8333-3.8684 5.0784.22 9.4601-1.0633 11.7152-4.7667.2016-.33.385-.6783.55-1.045-1.0267 1.3017-2.3101 1.8517-4.6934 1.7234 3.5384-1.5767 5.2984-3.0984 6.8751-5.6101.3666-.605.7333-1.2467 1.1-1.9617-3.0984 3.1717-6.6734 4.07-10.4318 3.3917l-2.8234.3117c-.0917.2016-.1834.44-.275.6783Z"></path>
  <defs>
    <linearGradient id="a" x1="282.93" x2="2227.43" y1="804.954" y2="157.751" gradientUnits="userSpaceOnUse">
      <stop stop-color="#f69923"></stop>
      <stop offset=".312" stop-color="#f79a23"></stop>
      <stop offset=".838" stop-color="#e97826"></stop>
    </linearGradient>
    <linearGradient id="b" x1="-2934.07" x2="3707.65" y1="8908.33" y2="3654.76" gradientUnits="userSpaceOnUse">
      <stop offset=".323" stop-color="#9e2064"></stop>
      <stop offset=".63" stop-color="#c92037"></stop>
      <stop offset=".751" stop-color="#cd2335"></stop>
      <stop offset="1" stop-color="#e97826"></stop>
    </linearGradient>
    <linearGradient id="c" x1="-1383.62" x2="5084.3" y1="6838.26" y2="4122.75" gradientUnits="userSpaceOnUse">
      <stop offset=".323" stop-color="#9e2064"></stop>
      <stop offset=".63" stop-color="#c92037"></stop>
      <stop offset=".751" stop-color="#cd2335"></stop>
      <stop offset="1" stop-color="#e97826"></stop>
    </linearGradient>
    <linearGradient id="d" x1="-185.673" x2="2691.24" y1="2995.72" y2="2432.55" gradientUnits="userSpaceOnUse">
      <stop stop-color="#282662"></stop>
      <stop offset=".095" stop-color="#662e8d"></stop>
      <stop offset=".788" stop-color="#9f2064"></stop>
      <stop offset=".949" stop-color="#cd2032"></stop>
    </linearGradient>
    <linearGradient id="e" x1="-2597.47" x2="1025.06" y1="8930.37" y2="184.681" gradientUnits="userSpaceOnUse">
      <stop offset=".323" stop-color="#9e2064"></stop>
      <stop offset=".63" stop-color="#c92037"></stop>
      <stop offset=".751" stop-color="#cd2335"></stop>
      <stop offset="1" stop-color="#e97826"></stop>
    </linearGradient>
    <linearGradient id="f" x1="-923.685" x2="4822.76" y1="6788.27" y2="-424.906" gradientUnits="userSpaceOnUse">
      <stop offset=".323" stop-color="#9e2064"></stop>
      <stop offset=".63" stop-color="#c92037"></stop>
      <stop offset=".751" stop-color="#cd2335"></stop>
      <stop offset="1" stop-color="#e97826"></stop>
    </linearGradient>
    <linearGradient id="g" x1="-303.473" x2="1882.78" y1="3051.3" y2="-2148.73" gradientUnits="userSpaceOnUse">
      <stop stop-color="#282662"></stop>
      <stop offset=".095" stop-color="#662e8d"></stop>
      <stop offset=".788" stop-color="#9f2064"></stop>
      <stop offset=".949" stop-color="#cd2032"></stop>
    </linearGradient>
  </defs>
</svg>