<svg xmlns="http://www.w3.org/2000/svg" fill="none" viewBox="0 0 96 96" id="Maven--Streamline-Svg-Logos" height="24" width="24">
  <desc>
    Maven Streamline Icon: https://streamlinehq.com
  </desc>
  <path fill="url(#a)" d="M47.2558 40.3988c-.0341.0805-.0664.1847-.0964.3102l-.0221.0982c-.0072.034-.0143.0694-.0212.106l-.0202.1136-.0193.121-.0183.1282-.0171.1352-.0161.1421-.0149.1486c-.0024.0253-.0048.0508-.007.0767l-.0131.158-.0119.1642-.0105.17c-.0017.0288-.0033.0579-.0048.0871l1.0531.5097c-.016-.6148.0038-1.1961.0592-1.7303l.0109-.0952-.0075.0872-.0094.1442-.0034.0688-.0058.157-.0021.0883-.0024.1964.0003.1649.0025.1802.003.1287.0068.2061.0062.1462.0077.1532c.0014.0261.0028.0526.0044.0793.1961-.16.4311-.3699.6754-.5995l.1639-.1555c.0274-.0263.0549-.0528.0824-.0794l.1645-.1605.1624-.1613.1584-.16.1525-.1568c-.1685-.3443-.3502-.5972-.5192-.7819l-.0559-.0591c-.0368-.0377-.0729-.0723-.108-.1038l-.0517-.0451-.0499-.0407c-.0164-.0129-.0324-.0252-.048-.0367l-.0457-.0328-.0433-.0291-.0599-.037-.0532-.0298-.0594-.0294-.0445-.0192-.0812-.0293-.0591-.019-.0578-.0163-.044-.0111-.0478-.0107c-.0082-.0017-.0166-.0034-.0251-.0051l-.0526-.0093-.0552-.0079c-.2912-.0365-.6673.0017-.8286.3825Z"></path>
  <path fill="url(#b)" d="M48.291 45.9757c-.0486-.3504-.093-.6951-.1331-1.034-.0326-.2814-.0593-.5586-.0811-.8332l-.0187-.2461c-.0004-.0065-.0005-.0128-.0005-.0187-.023-.3337-.0397-.6588-.0471-.9773l-1.051-.5068-.0028.0644-.0071.1337c-.0105.2518-.0183.5194-.0205.8006-.0025.317.0005.6476.0062.994.0074.3185.0205.6507.0377.9886.0128.217.0268.4356.0428.657l.0193.2561 1.406.7122-.0496-.3318-.1005-.6587Z"></path>
  <path fill="url(#c)" d="m50.3247 54.1404.0218.075.1396.4744c.0201.0674.0404.1352.0611.2032l.0666.2157.0228.0776c.004.0127.0083.0253.0132.038l.2265.7258c.2006-.0415.4451.0334.7034.1461l.1039.0469c-.1901-.2288-.4533-.3818-.7678-.4173.8611-.5743 1.4277-1.3141 1.3481-2.1965-.0085-.0781-.0191-.1591-.0348-.2408-.013.3253-.1428.5641-.5191.8193l-.0464.0307c.3892-.6851.4964-1.1498.4504-1.7507-.0114-.1425-.0292-.2937-.0554-.4564-.1245.8946-.6049 1.4736-1.3076 1.8162l-.4263.3928Z"></path>
  <path fill="url(#d)" d="m49.8207 53.0902-.0894-.3353-.1799-.6786c-.0854-.328-.1678-.658-.2495-.993-.0817-.335-.1605-.6722-.2393-1.0093-.0801-.3451-.1553-.6893-.2276-1.0357l-.0713-.3425-.137-.6851c-.0245-.1241-.0468-.2452-.0684-.3714-.0393-.2108-.0758-.4237-.1122-.6366l-.0075-.0344-1.3981-.7137.0046.0443c.0005.0077.0008.0154.0005.0231.0282.3165.0556.6381.093.9613.0367.3281.0784.657.1272.9895.0415.2802.0858.5583.1323.8393l.0304.1685c.0644.3478.1332.6834.208.9969.0836.3558.1732.6894.2637 1.0002.0608.2039.1204.3999.1814.5858l.0542.1567.112.3116c.1336.3635.2817.7164.4413 1.0608l1.413.7159c-.0753-.2598-.1448-.5239-.2215-.7916l-.0392-.1501-.0207-.0766Z"></path>
  <path fill="url(#e)" d="M48.7094 53.4395c.1703.3643.356.7172.5611 1.056l.1137.1839c-.1339-.0539-.3032-.0807-.4677-.0927l-.0817-.0048c-.0135-.0006-.0269-.0011-.0402-.0015l-.0784-.0018-.1105.0004-.0986.0029-.083.0043-.1162.0096c-.0009.0001-.0012.0002-.0012.0002.7144.2478 1.341.5513 1.7363 1.0112-.1571.173-.4511.3045-.8208.4116.2752.0298.4849.0177.6361-.007l.0612-.0112c.0096-.002.0189-.004.028-.0061l.0507-.0126.0438-.0128.0533-.0185.0273-.0112c-.2271.1892-.3691.5117-.4872.8732l-.0408.129c-.0066.0218-.0132.0436-.0198.0655.3006-.4914.5988-.8167.8892-.9411.3243 1.0754.6994 2.2199 1.111 3.4142l.1925.5547c.065.186.1309.3732.1974.5613.0958-.1235.1065-.2601.0664-.3993l-.1316-.3718-.15-.4346-.2322-.6891-.1904-.5778-.2103-.6521-.2008-.6361-.1844-.5961-.1356-.4464-.1103-.3686c-.0148-.0483-.0283-.0976-.0428-.1474l-.0416-.1368-.1191-.4118-.1212-.4237-.0546-.1952-.0021-.0029-1.413-.7159c.0032.0125.0067.0227.011.033l.0071.0159Z"></path>
  <path fill="url(#f)" d="m48.6057 46.9969.025.1369c.0182.0932.035.1874.0529.2821l.1528.7843.0562.2731.0818.386c.0139.0652.028.1308.0422.197.0422.1954.0867.3939.1333.5965l.096.4113.0955.4012c.0163.0677.0329.1359.0496.2045l.1026.4152.1026.4035c.0521.2039.1057.4111.1623.6225.0413.1561.0842.3143.1281.4746l.147.5351.111.3933.1147.4016c.0194.0676.039.1354.0588.2034.0013.0079.0027.0158.0069.0216l.4263-.3928-.0104.0043-.0227.0111c.5059-.4778.9394-1.435 1.0385-2.2977.0456-.3974.0414-.8204-.0132-1.2818-.0394-.3439-.1093-.7053-.2055-1.0963-.0838-.3379-.1874-.6968-.3137-1.0745-.0783.1595-.1894.3165-.3255.4697l-.0738.0808-.0253.0263-.0535.0537c.3731-.58.4174-1.2029.3068-1.8495-.0678.1918-.201.476-.4219.7313-.0283.034-.0615.0673-.0948.1006-.0058.0043-.0106.0098-.0166.0155l-.0101.0086c.1238-.2063.2152-.4021.2738-.6004.0094-.0276.0165-.0555.0229-.0835l.0092-.0421c.015-.0643.0249-.1293.0349-.1943l.0142-.1258c.0056-.074.0072-.1501.0036-.2273l-.0098-.1421c-.0009-.0105-.0022-.021-.004-.0315l-.0148-.091c-.0025-.0146-.0051-.0289-.0081-.043-.0289-.169-.0607-.3196-.0934-.4532l-.0307-.1199-.0277-.1012-.0361-.1198-.0468-.1404c-.005-.0141-.0099-.0277-.015-.0406l-.0283-.0708c-.009-.0218-.0177-.0417-.026-.0596l-.0233-.0479c-.0044.0181-.0102.0371-.0179.0562l-.013.0287c-.088.2066-.2927.49-.4794.6891-.0029.0021-.0058.0043-.0066.0093l-.0385.0384c-.0065.007-.013.0142-.0193.0218l.0073-.0142-1.343 1.2298c.0113.0094.0127.0173.0119.0223Z"></path>
  <path fill="url(#g)" d="M48.0859 42.8423c.0055.0981.012.2003.0194.3066l.0163.2179c.0029.0372.006.0748.0091.1129l.02.2337c.0035.0398.0071.0801.0108.1208l.0032.0387c.0007.0062.0018.0124.0034.0186.0114.1198.024.243.038.3701l.0298.2594c.0105.0883.0217.1784.0335.2705l.0559.4219c.0261.1916.0544.3901.086.5971l.0244.1568c.0241.1599.0509.3233.0792.4911l.0885.5175 1.3431-1.2298c.28-.5073.3413-.823.3374-1.2152-.0013-.0789-.005-.161-.0102-.2452l-.0057-.0848c-.0215-.3437-.0628-.7084-.1214-1.0604-.0551-.3411-.1226-.6689-.1998-.9495-.0489-.1815-.1009-.3431-.1539-.4817-.0481-.12-.0978-.23-.1482-.335l-.1523.1554c-.0259.0263-.0521.0527-.0785.0792l-.1605.16-.1636.1604-.1647.1588c-.0274.0262-.0548.0523-.0821.0782l-.1628.1526c-.2149.1995-.4199.3812-.5943.5234Z"></path>
  <path fill="#000000" d="M39.9439 40.9885c.7456.0806 1.4005.2317 1.9647.4534.5844.2216 1.058.5239 1.4207.9068.3828.3627.6347.8362.7556 1.4206.0605.3426.0605.7355 0 1.1788-.0604.4433-.141.8967-.2418 1.3602l-1.3602 6.7404c-.0604.3829-.1309.7758-.2115 1.1789-.0807.3828-.1109.7355-.0907 1.0579 0 .0604-.0101.1309-.0303.2116v.1813c0 .2217-.0201.4433-.0604.665-.0403.2216-.1713.3728-.3929.4534-.1411.0604-.2922.0907-.4534.0907h-2.6599c-.1613-.0202-.2822-.0706-.3628-.1512-.1209-.0806-.2015-.1914-.2418-.3325-.0403-.1612-.1108-.2921-.2116-.3929-.0403-.0403-.0906-.0705-.1511-.0907-.0403-.0403-.1108-.0504-.2116-.0302-.1209.0403-.2317.0907-.3325.1511-.1007.0605-.2015.1109-.3022.1512-.1209.0806-.2519.1511-.393.2115-.1209.0605-.2518.1209-.3929.1814-.2821.1209-.5743.2217-.8766.3023-.3022.0604-.6045.1309-.9067.2115-.1613.0403-.3124.0605-.4534.0605-.1209.0201-.2519.0403-.393.0604h-.1813c-.0605.0202-.1209.0303-.1814.0303h-.3325c-.2216.0403-.4231.0403-.6045 0h-.272c-.1411-.0403-.2821-.0605-.4232-.0605-.1209.0202-.2418.0101-.3627-.0302-.1814-.0403-.3627-.0806-.5441-.1209-.1813-.0202-.3426-.0705-.4836-.1511-.5441-.2217-.9874-.5038-1.33-.8464-.3425-.3627-.5743-.8362-.6952-1.4206-.0403-.1411-.0705-.2922-.0906-.4534 0-.1612-.0101-.3325-.0303-.5138-.0201-.1008-.0201-.2016 0-.3023.0403-.1008.0605-.2015.0605-.3023 0-.0604.0101-.1813.0302-.3627.0403-.2015.0806-.3425.1209-.4232.0806-.2015.131-.3727.1511-.5138l.3023-.665c.1209-.2418.2519-.4534.3929-.6347.4434-.5844.9169-1.0277 1.4207-1.33.5037-.3022 1.1284-.5642 1.874-.7859.2821-.1007.5642-.1712.8463-.2115s.5743-.0907.8766-.1512c.1612-.0403.3325-.0604.5138-.0604.2015-.0202.393-.0504.5743-.0907.1411-.0403.2821-.0504.4232-.0302.1411 0 .3023-.0202.4836-.0605.1411-.0403.2821-.0604.4232-.0604.141 0 .2922-.0202.4534-.0605.4433-.1007.8463-.1813 1.209-.2418.3829-.0806.7456-.262 1.0882-.5441.2015-.1813.3627-.3828.4836-.6045.0201-.0604.0302-.1108.0302-.1511 0-.0403.0101-.0806.0302-.1209.0403-.0403.0605-.1008.0605-.1814.0201-.0806.0403-.141.0605-.1813v-.4534c-.0807-.6046-.4232-1.0176-1.0277-1.2393-.1612-.0605-.3728-.1008-.6348-.1209-.2418-.0403-.4937-.0504-.7556-.0302-.262 0-.524.0201-.7859.0604-.2418.0403-.4534.0907-.6348.1511-.141.0403-.272.1008-.3929.1814-.1209.0605-.2418.131-.3627.2116-.1209.0806-.2519.1914-.393.3325-.141.141-.2418.272-.3022.3929-.1411.2015-.262.393-.3627.5743-.1008.1814-.2721.3023-.5139.3627-.1612.0403-.3325.0605-.5138.0605h-1.6927c-.1008 0-.2116.0101-.3325.0302-.1007 0-.1814-.0101-.2418-.0302h-.272c-.0403-.0202-.0907-.0302-.1512-.0302-.0604 0-.1108-.0202-.1511-.0605-.1411-.0403-.2217-.1713-.2418-.3929 0-.1008.0201-.2015.0604-.3023s.0806-.1914.1209-.272c.1008-.2217.2016-.4232.3023-.6046.1209-.2015.2418-.3828.3627-.544l.2418-.3023c.0806-.1007.1612-.2015.2418-.3023.2015-.2216.4434-.4332.7255-.6347.0604-.0202.131-.0705.2116-.1511.1209-.0806.2216-.1512.3022-.2116.1008-.0605.2116-.1209.3325-.1814.3829-.2216.7758-.3929 1.1788-.5138.4232-.1411.8464-.2721 1.2695-.393.262-.0604.5239-.1007.7859-.1209.262-.0201.534-.0604.8161-.1209.0806-.0201.2015-.0201.3627 0 .1612.0202.2721.0101.3325-.0302.8262-.0201 1.602.0101 2.3274.0907Zm33.604.2418c.6851.2418 1.2796.5642 1.7833.9672.1613.1209.3124.262.4534.4232.1612.141.2922.2922.393.4534.0403.1007.1108.1813.2116.2418.1209.2217.2216.4534.3022.6952.1008.2217.2116.4534.3325.6952.0605.1814.1008.3728.1209.5743.0403.1814.0806.3829.1209.6045.0403.262.0605.534.0605.8161.0201.2821.0403.5643.0604.8464 0 .1612-.0302.3425-.0906.544-.0403.1814-.0504.3527-.0303.5139l-.0604.3325c0 .1612-.0403.3425-.1209.544-.0806.2015-.1814.3325-.3023.393-.1007.0806-.2519.141-.4534.1813-.2015.0202-.4232.0403-.665.0605h-.6952c-.2216-.0202-.4231-.0302-.6045-.0302h-7.7983c-.121 0-.2318.0201-.3325.0604-.1814.0806-.3023.1612-.3628.2418-.0403.0403-.1007.1209-.1813.2418-.0605.1008-.0907.2015-.0907.3023.0202.1209.0202.2418 0 .3627 0 .1008.0101.2116.0302.3325.0605.4836.1713.8866.3325 1.209.1814.3023.4433.5743.7859.8162.1411.1007.2922.1712.4534.2115.1814.0202.3526.0605.5138.1209.1613.0403.3728.0706.6348.0907.2821.0202.534.0101.7557-.0302h.272c.2015-.0403.3929-.0806.5743-.1209l.5441-.1814c.2216-.1007.4735-.2317.7556-.3929.2821-.1612.5038-.3224.665-.4836.1209-.1411.2519-.2721.3929-.393.1411-.141.2922-.2418.4534-.3022.2217-.1008.4836-.1411.7859-.1209h1.2393c.141-.0202.2619-.0101.3627.0302h.3023c.1813.0403.3123.0907.3929.1511.0604.0403.0806.131.0604.2721 0 .141-.0302.2619-.0906.3627-.1612.2821-.3325.534-.5139.7556-.1612.2217-.3425.4433-.544.665-.5643.665-1.1688 1.199-1.8136 1.602s-1.4207.7456-2.3274 1.0277c-.2418.0806-.4736.131-.6952.1511-.2217.0202-.4635.0605-.7255.1209-.0806.0202-.1713.0202-.272 0-.0806 0-.1612.0101-.2418.0302h-.3325c-.1209.0403-.2418.0504-.3627.0303-.1209 0-.2317-.0101-.3325-.0303-.1612-.0201-.3023-.0201-.4232 0-.1209.0202-.2519.0101-.3929-.0302-.1008-.0403-.2116-.0604-.3325-.0604-.1209 0-.2217-.0202-.3023-.0605-.2216-.0403-.4433-.0907-.6649-.1511-.2015-.0403-.3829-.1108-.5441-.2116-.2015-.0806-.3929-.1511-.5743-.2116-.1814-.0806-.3426-.1713-.4836-.272-.5642-.403-1.0479-.8665-1.4509-1.3904-.3828-.5441-.665-1.1688-.8463-1.874-.0605-.2217-.1008-.4434-.1209-.665 0-.2418-.0302-.4836-.0907-.7255v-.2115c.0202-.0806.0302-.1612.0302-.2418-.0201-.2419-.0201-.5038 0-.7859l.1209-.8464c.0202-.1007.0303-.2115.0303-.3324.0201-.121.0503-.2318.0906-.3325l.0907-.3628.2418-.7254c.1411-.3425.2721-.675.393-.9974.1209-.3225.272-.6247.4534-.9068 1.2896-2.0957 3.0629-3.5768 5.3198-4.4433.3022-.1209.6045-.2015.9068-.2418.3022-.0604.6246-.131.9672-.2116.1612-.0201.3123-.0302.4534-.0302.141 0 .2922-.0101.4534-.0302 1.0277-.0202 1.8841.1007 2.5692.3627Zm-62.5984-5.8941c.3425 0 .5843.0705.7254.2116.1209.1007.1914.2518.2116.4534.0201.1813.0503.3627.0906.544.0403.3224.0806.6549.121.9975.0604.3224.1108.6549.1511.9975.2216 1.2695.403 2.5591.5441 3.8689.1612 1.3098.3526 2.6095.5743 3.8992.0806.403.141.8161.1813 1.2393.0403.4231.1008.8362.1814 1.2392.0201.1008.0403.2015.0604.3023.0202.1008.0705.1814.1511.2418.0404.0202.0706.0403.0907.0605.0403.0201.0907.01.1512-.0303.1612-.0403.2921-.1612.3929-.3627s.2015-.3828.3023-.5441c.2418-.4634.4735-.9168.6952-1.3601.2216-.4635.4634-.927.7254-1.3904.6448-1.2292 1.2896-2.4584 1.9345-3.6876.6649-1.2494 1.3198-2.4987 1.9647-3.7481.1612-.3224.3224-.6347.4836-.937.1813-.3224.3526-.6448.5138-.9672.0806-.1612.1713-.3224.2721-.4836.1007-.1613.2418-.2922.4231-.393.1411-.1007.3023-.1511.4837-.1511h5.1989c.2015 0 .3425.0403.4231.1209.2015.1209.262.3526.1814.6952-.0605.3224-.1209.6549-.1814.9975l-.9068 4.5339-2.2669 11.2441-.5139 2.6297c-.0403.2217-.0906.4433-.1511.665-.0604.2015-.1612.3526-.3023.4534-.141.1007-.3022.1612-.4836.1813h-2.8715c-.141-.0403-.272-.0705-.3929-.0906-.1008-.0202-.1814-.0907-.2418-.2116-.0605-.1008-.0806-.2318-.0605-.393.0403-.1612.0806-.3325.1209-.5138l.3023-1.5416 1.5718-7.7681c.0403-.2821.0806-.5441.1209-.7859.0604-.2619.1108-.5239.1511-.7858.0403-.1613.0806-.3225.1209-.4837.0403-.1813.0605-.3526.0605-.5138-.0202-.1411-.0202-.2922 0-.4534.0403-.1612.01-.262-.0907-.3023-.0605-.0201-.1109-.01-.1512.0303l-.0906.0906c-.1008.0806-.1915.1814-.2721.3023l-.1813.3023c-.1814.3022-.3627.6146-.5441.937-.1612.3224-.3426.6448-.5441.9672l-.1813.3627c-.0403.1209-.1008.2418-.1814.3627-.1612.262-.3123.524-.4534.7859-.1209.262-.2619.5239-.4231.7859-.0403.0605-.0706.131-.0907.2116-.0202.0604-.0504.1209-.0907.1813-.1209.1814-.2317.3728-.3325.5743-.0806.2015-.1914.4031-.3325.6046-.1209.1813-.2317.3728-.3325.5743-.0806.2015-.1813.403-.3022.6045-.3627.5844-.6952 1.1788-.9975 1.7833-.3023.5844-.6146 1.1688-.937 1.7532-.0605.0604-.1008.1209-.1209.1813 0 .0605-.0302.1209-.0907.1814-.141.2216-.272.4534-.3929.6952-.1008.2216-.2217.4433-.3627.6649-.0806.1411-.1612.2721-.2419.393-.0806.1209-.1712.2216-.272.3022-.1209.0807-.2317.131-.3325.1512-.1007 0-.2317.0201-.3929.0604h-.6952c-.1411 0-.3124.0101-.5139.0303h-.5743c-.1813 0-.3526-.0101-.5138-.0303-.1612-.0201-.272-.0604-.3325-.1209-.1411-.1007-.2317-.2116-.272-.3325-.0202-.141-.0605-.3022-.1209-.4836-.0403-.2418-.0706-.4836-.0907-.7254-.0202-.262-.0605-.5139-.1209-.7557l-.0302-.272c-.0605-.2418-.1008-.4937-.121-.7557-.0201-.2821-.0604-.544-.1209-.7858v-.1512c0-.0604-.01-.1209-.03018-.1813-.06045-.1814-.10076-.3728-.12091-.5743s-.05037-.403-.09068-.6045v-.1512c0-.0604-.01007-.1108-.03022-.1511-.0403-.2015-.07053-.403-.09068-.6045 0-.2015-.03023-.403-.09068-.6046-.0806-.403-.15113-.8261-.21158-1.2695-.0403-.4433-.10076-.8765-.18136-1.2997-.0806-.5038-.15113-1.0176-.21158-1.5415-.0403-.5239-.13098-1.0277-.27204-1.5113-.0403-.2821-.10075-.5139-.18136-.6952-.0403-.0403-.0806-.0706-.1209-.0907-.02015-.0403-.06045-.0403-.12091 0-.1209.0604-.2015.1612-.2418.3023-.02016.141-.06046.2821-.12091.4231-.0806.1411-.13098.2922-.15113.4534-.02015.1411-.0403.2922-.06045.4534-.0403.2217-.09068.4433-.15113.665-.04031.2216-.09068.4433-.15114.665l-1.60198 8.0401-.30227 1.4811-.1209.4836c-.02015.1612-.0806.2922-.18136.393-.10075.141-.27203.2317-.51384.272-.14106.0403-.29219.0605-.4534.0605-.1612-.0202-.32241-.0303-.48361-.0303H1.54911c-.18136-.0201-.32241-.0806-.42317-.1813-.10075-.1008-.141053-.2519-.1209-.4534l.1209-.665.51385-2.6599 2.26696-11.2441.84634-4.2317c.02015-.1209.0403-.262.06045-.4232.0403-.1813.0806-.3526.1209-.5138.0403-.1612.08061-.3124.12091-.4534.06045-.1612.11083-.2821.15113-.3627.1209-.1411.30226-.2418.54407-.3023.06045-.0201.10075-.0201.1209 0 .04031 0 .09068-.0101.15114-.0302h4.92691Zm82.1916 6.0754c.7456.3829 1.2695.9471 1.5717 1.6927.1008.2217.1613.4635.1814.7254.0403.2419.0705.4937.0907.7557.0201.1612.0201.3123 0 .4534-.0202.141-.0202.2821 0 .4232-.0403.1209-.0504.2015-.0302.2418-.0202.2821-.0605.5743-.1209.8765-.0605.3023-.1209.5945-.1814.8766l-.5138 2.6901-.9975 4.8967c-.0806.3828-.1612.7556-.2418 1.1183-.0806.3426-.2721.5643-.5743.665-.1209.0403-.262.0605-.4232.0605H89.786c-.2418 0-.4534-.0101-.6348-.0303-.1813-.0403-.3123-.131-.3929-.272-.0605-.1209-.0806-.272-.0605-.4534.0403-.2015.0806-.4131.1209-.6347l.4232-2.1159.9068-4.5037c.141-.7456.2418-1.4307.3023-2.0554.0806-.6448.01-1.1889-.2116-1.6322-.2015-.403-.5542-.6851-1.0579-.8463-.1008-.0403-.2116-.0605-.3325-.0605-.1008 0-.2015-.0201-.3023-.0604-.1007-.0202-.2317-.0202-.3929 0-.1411 0-.2519.0101-.3325.0302-.1008.0202-.1814.0302-.2418.0302-.0605 0-.1209.0101-.1814.0303-.4836.1209-.8866.2821-1.209.4836-.7456.4634-1.2695 1.1385-1.5718 2.0251-.2821.8867-.534 1.8841-.7557 2.9924l-.7556 3.7783-.3627 1.8438c-.0403.1814-.0806.3627-.1209.5441-.0403.1813-.1008.3325-.1814.4534-.141.2216-.3325.3526-.5743.3929-.2216.0403-.4937.0605-.8161.0605h-1.5113c-.2217 0-.4433-.0101-.665-.0303-.2216-.0201-.3627-.0906-.4231-.2116-.1209-.1813-.1411-.4433-.0605-.7858.0806-.3426.1511-.665.2116-.9673l.8161-4.1107 1.33-6.6498.3324-1.5415c.0403-.2217.0806-.4232.1209-.6046.0403-.1813.131-.3324.2721-.4533.0403-.0605.1108-.1008.2116-.121.1007-.0403.2015-.0705.3022-.0906h.1512c.1007-.0202.2015-.0303.3022-.0303h1.602c.1612 0 .3123.0101.4534.0303.1612 0 .3023.0201.4232.0604.1209.0605.1914.1512.2115.2721.0403.1209.0605.2619.0605.4231 0 .0806-.0101.1512-.0302.2116-.0202.0605-.0202.1209 0 .1814.0201.1007.0403.1612.0604.1813.0403.0202.0907.0504.1512.0907.2015.0201.3929-.0504.5743-.2116.1813-.1813.3627-.3224.544-.4232.6247-.403 1.2897-.7254 1.995-.9672.2015-.0604.3929-.1007.5743-.1209.2015-.0201.4231-.0504.6649-.0907.0605-.0201.1512-.0201.2721 0 .1209 0 .2015-.01.2418-.0302 1.209-.0403 2.1763.131 2.9017.5138Zm-54.8596 8.2216c-.0806.0201-.1511.0403-.2116.0604-.0604 0-.141.0101-.2418.0302-.1411.0404-.2922.0706-.4534.0907-.1612.0202-.3325.0504-.5138.0907-.0605.0202-.1512.0302-.2721.0302-.2821.0605-.5541.1008-.8161.1209-.2619.0202-.5239.0706-.7859.1512l-.4836.1209c-.141.0201-.2821.0604-.4231.1209-.4635.1813-.8766.4534-1.2393.8161s-.5743.8665-.6348 1.5113c-.0201.3426.0403.6247.1814.8463.0806.2217.2519.403.5138.5441.262.1209.5542.2116.8766.272.3224.0605.665.0806 1.0277.0605.3828-.0403.7456-.1108 1.0881-.2116.5642-.1612 1.0277-.4131 1.3904-.7557.3829-.3627.7053-.806.9673-1.3299.0604-.1411.1108-.2821.1511-.4232.0403-.1612.1008-.3224.1814-.4836l.0604-.272c.0403-.1008.0705-.2116.0907-.3325.0201-.1411.0302-.262.0302-.3627 0-.1209.0101-.2318.0302-.3325.0202-.1008-.01-.1814-.0906-.2418-.0806-.0806-.2217-.1209-.4232-.1209Zm32.0927-5.5919c-.0605.0403-.131.0504-.2116.0303-.0806-.0202-.1512-.0202-.2116 0-.1209.0403-.2418.0705-.3627.0906-.1209 0-.2318.0202-.3325.0605-.9471.2821-1.7128.8362-2.2972 1.6624-.0605.0806-.131.1915-.2116.3325-.0806.1209-.141.2519-.1813.393-.0403.1209-.0605.2418-.0605.3627 0 .1209.0504.2216.1511.3022.1411.1008.3527.1512.6348.1512h5.0478c.3224-.0202.544-.1109.6649-.2721.1814-.2015.2418-.4433.1814-.7254-.0403-.3023-.0705-.5239-.0907-.665-.1813-.5441-.4735-.9571-.8765-1.2393-.4031-.3022-1.0177-.4634-1.8438-.4836Z"></path>
  <path fill="url(#h)" d="M61.0155 40.6623c-.043.0177-.0899.04-.1403.0667l-.0784.0432c-.054.031-.1116.0664-.1724.1059l-.0937.0623-.0984.0685-.103.0745-.1074.0804c-.0183.0138-.0367.028-.0553.0423l-.1138.0891-.1177.0947-.1216.1003-.1253.1056-.1288.111-.1321.1161-.1354.1213c-.0228.0206-.0457.0414-.0688.0625l.4429 1.247c.4789-.5112.9601-.9662 1.4322-1.354l.1662-.1347.012-.0092-.1143.0929-.112.0969-.1214.1098-.1152.1079-.0968.0932-.0695.0681-.1506.1509-.123.1265-.1774.1869-.0943.1015-.0981.107-.154.1709-.1073.1211c.1101.0105.2309.0196.3595.0273l.1983.0105.2081.0086.2157.0067.2212.0048.2247.003c.0376.0004.0753.0007.113.0009l.2259.0003c.0376 0 .0751-.0002.1125-.0004l.2226-.0022c.0368-.0005.0734-.001.1097-.0016l.2146-.0046c.1761-.5251.2165-.9474.2028-1.2627l-.0047-.0798-.0069-.075c-.0013-.0121-.0026-.0239-.0041-.0356l-.0094-.0677-.0108-.0627c-.0019-.01-.0038-.0198-.0058-.0295l-.0121-.0553-.0126-.0504-.0129-.0454-.0126-.0404-.0237-.0659-.0193-.0457-.0457-.0943-.0267-.0504-.0223-.0395-.0259-.0435-.0293-.0466-.0328-.0489-.0362-.0505c-.202-.2721-.547-.5783-1.0018-.3906Z"></path>
  <path fill="url(#i)" d="M57.4191 45.975c.2393-.3207.4774-.6334.7143-.9381.2468-.3156.4957-.6185.7475-.9129.0149-.0182.0299-.0365.0442-.0507.2467-.287.4915-.5619.7386-.8242l-.4434-1.243-.0535.0496-.1119.102c-.2085.1944-.4273.4036-.6525.6282-.127.1266-.2555.257-.3862.3912l-.2642.2734c-.0445.0465-.0893.0933-.1344.1405-.2471.2623-.5006.5401-.7552.8258-.1621.1848-.3245.3719-.4875.5629l-.1879.2215.5659 1.6904.2237-.3065.4425-.6101Z"></path>
  <path fill="url(#j)" d="m52.5685 54.1636-.0841.1554-.2225.4152c-.0374.0702-.0749.1408-.1123.212l-.1177.2266c-.0225.0417-.0444.0794-.0628.1217l-.1238.2388-.2706.5254c.2204.1428.3674.4507.4966.7968.0287-.3352-.0616-.6675-.2866-.9459 1.1495.2218 2.1934.0764 2.8304-.6972.0552-.0696.111-.1432.1634-.2214-.2697.2522-.5649.341-1.0733.2462l-.0573-.0113c.8576-.2423 1.3131-.5313 1.7535-1.0515.104-.1238.2098-.2596.318-.4115-.811.6213-1.6578.7057-2.4957.4232l-.6552-.0225Z"></path>
  <path fill="url(#k)" d="m52.9528 52.9959.2386-.4192.3944-.6892c.1918-.3318.3876-.663.5881-.9976.2004-.3346.4048-.6686.6093-1.0026.2096-.3415.4226-.6783.6396-1.0146.2125-.3328.4329-.6645.6488-.9928.0788-.1193.1571-.2346.24-.3533.1358-.2009.2756-.4013.4154-.6016l.0213-.0337-.5584-1.6852-.0316.0393c-.0056.0066-.0116.013-.0179.0188-.2288.2773-.4622.558-.6888.8479-.2312.2932-.4589.5911-.6839.8976-.1892.2585-.3745.5176-.5603.7808l-.1094.1598c-.2244.3311-.4357.6559-.6246.9677-.2154.3528-.4084.6926-.5824 1.0147-.113.2125-.2208.4175-.3194.6158-.0819.1679-.1604.3404-.2383.509-.1812.3987-.3424.8005-.4876 1.2045l.5687 1.699.1107-.2016.2263-.4057c.038-.0682.0759-.1368.1136-.2059l.0878-.1519Z"></path>
  <path fill="url(#l)" d="M51.8252 52.3159c-.1524.4286-.2833.8603-.3874 1.296l-.0545.2384c-.0513-.1181-.1336-.2401-.2263-.3552l-.0568-.0682c-.0096-.0112-.0193-.0223-.029-.0333l-.0587-.0647-.0587-.0617-.0578-.0583-.0827-.0797-.075-.069-.0822-.0722-.074-.061c.3783.7672.6416 1.5093.5943 2.1936-.2639.0144-.605-.1134-.9877-.3208.1647.202.316.3445.4435.4444l.0572.0432c.0092.0067.0183.0131.0272.0194l.0517.0348.0478.0296.0436.0249.0393.0205.0347.0165.0298.0129c.0046.0019.0089.0036.0131.0052-.3207-.027-.676.108-1.0431.294l-.1228.0637-.1234.0666c.6324-.1567 1.131-.1817 1.4636-.0511-.1634.3093-.3278.6258-.4932.9491l-.2488.4898c-.3743.7421-.7534 1.5168-1.1364 2.3177l-.2558.5377c-.0855.1805-.1711.3623-.2569.5451.1752-.0233.2923-.1248.3707-.2687l.2897-.6143.2666-.5523.3408-.6936.3009-.603.2982-.5891.2832-.5526.3932-.7558.2791-.529.0959-.1803.0827-.1527.0753-.1432.1146-.2117.2351-.4318c.0399-.0729.08-.1462.1205-.22l.1112-.2005.0006-.004-.5687-1.699c-.0073.0126-.0125.0236-.0173.0353l-.0069.0184Z"></path>
  <path fill="url(#m)" d="m56.8601 47.0467-.0886.1301c-.0595.0895-.1208.1787-.1816.2691l-.2918.44-.2083.3128-.0528.081c-.0791.1214-.1586.2447-.2388.3699l-.2436.3815c-.1617.2544-.3245.5164-.4907.788l-.1254.2054c-.1993.3266-.4049.6686-.6117 1.0187l-.238.4063c-.12.2055-.2416.4149-.3639.6301-.0726.1268-.1455.2555-.2189.3858l-.3619.6456-.111.2011-.2251.4098c-.0757.1382-.1518.2778-.2281.4188-.0052.0074-.0104.0148-.0115.0228l.6552.0225c-.0115-.0057-.0235-.0075-.0389-.0138.7868.0173 1.8964-.4089 2.6616-1.0247.3525-.2836.6852-.6275 1.0078-1.0423.2415-.3081.4723-.6546.7056-1.0458.201-.3386.4027-.7098.6011-1.1142-.1897.0662-.4039.1043-.6351.1195l-.1237.0064c-.0274.0014-.0546.001-.0831.0011l-.0439.0007c.7612-.1706 1.2918-.6367 1.7164-1.2451-.2069.1005-.5399.2234-.9206.2534-.0498.005-.103.0054-.1563.0057-.008-.0011-.0162-.0005-.0256-.0007l-.015-.0011c.2635-.0677.4928-.1527.6975-.2658.0294-.0148.0574-.0316.0848-.0491l.0408-.0265c.0631-.0399.1228-.0843.1825-.1287l.1114-.09c.0844-.0735.166-.1556.2407-.2469l.0478-.0554c.0076-.0092.0149-.0186.0218-.0284l.0603-.0851c.0096-.0138.0189-.0274.0277-.0411.1133-.1623.209-.3115.2898-.4473l.0338-.0574c.0437-.0753.0823-.1433.1164-.2078l.0397-.076.0604-.1222c.0123-.0253.0237-.0495.0337-.0726l.0176-.041.0299-.0742c.0088-.0229.0165-.044.0229-.063l.0087-.027c-.0179.011-.0377.0218-.0591.0311l-.0332.0127c-.235.0964-.625.1618-.9335.1738-.004-.0006-.008-.0011-.0126.0023l-.0615.0003c-.0108.0004-.0218.0011-.0329.0022l.0172-.0057-2.0583-.077c.0017.0166-.0035.024-.0081.0274Z"></path>
  <path fill="url(#n)" d="M59.7436 43.2896c-.0735.0832-.1495.1707-.228.2622l-.16.1883-.1664.1989-.2011.2428c-.0043.0056-.0083.0114-.0119.0177-.1147.1406-.2325.2879-.3539.4429l-.185.2384c-.0313.0407-.0628.0819-.0947.1236l-.2657.3514-.1737.2328c-.088.1186-.1776.2407-.269.3669l-.0919.1277c-.0922.1267-.185.257-.2792.391l-.1908.2725-.1963.2817 2.0582.077c.6286-.1859.9286-.3913 1.2372-.7101.0616-.0646.1239-.1337.1866-.2056l.0628-.0727c.2558-.2938.5123-.6202.7447-.9501.2267-.3185.4328-.6359.5936-.9231.1048-.1851.1913-.3564.2589-.5101.0566-.1349.104-.2629.1468-.3875l-.2135.0038-.2196.0022-.2235.0008-.2254-.0008c-.0376-.0003-.0752-.0006-.1127-.001l-.2243-.0033-.221-.005c-.0364-.001-.0726-.002-.1085-.0032l-.212-.0077c-.0347-.0015-.069-.003-.1029-.0046l-.1983-.0106c-.1286-.0077-.2493-.0168-.3595-.0272Z"></path>
  <defs>
    <linearGradient id="a" x1="102.454" x2="443.785" y1="221.925" y2="110.618" gradientUnits="userSpaceOnUse">
      <stop stop-color="#f69923"></stop>
      <stop offset=".312" stop-color="#f79a23"></stop>
      <stop offset=".838" stop-color="#e97826"></stop>
    </linearGradient>
    <linearGradient id="b" x1="78.939" x2="497.741" y1="1861.84" y2="199.152" gradientUnits="userSpaceOnUse">
      <stop offset=".323" stop-color="#9e2064"></stop>
      <stop offset=".63" stop-color="#c92037"></stop>
      <stop offset=".751" stop-color="#cd2335"></stop>
      <stop offset="1" stop-color="#e97826"></stop>
    </linearGradient>
    <linearGradient id="c" x1="118.289" x2="393.412" y1="861.889" y2="-478.026" gradientUnits="userSpaceOnUse">
      <stop stop-color="#282662"></stop>
      <stop offset=".095" stop-color="#662e8d"></stop>
      <stop offset=".788" stop-color="#9f2064"></stop>
      <stop offset=".949" stop-color="#cd2032"></stop>
    </linearGradient>
    <linearGradient id="d" x1="139.615" x2="748.558" y1="1385.32" y2="-95.435" gradientUnits="userSpaceOnUse">
      <stop offset=".323" stop-color="#9e2064"></stop>
      <stop offset=".63" stop-color="#c92037"></stop>
      <stop offset=".751" stop-color="#cd2335"></stop>
      <stop offset="1" stop-color="#e97826"></stop>
    </linearGradient>
    <linearGradient id="e" x1="166.435" x2="656.777" y1="610.42" y2="-.516" gradientUnits="userSpaceOnUse">
      <stop stop-color="#282662"></stop>
      <stop offset=".095" stop-color="#662e8d"></stop>
      <stop offset=".788" stop-color="#9f2064"></stop>
      <stop offset=".949" stop-color="#cd2032"></stop>
    </linearGradient>
    <linearGradient id="f" x1="175.85" x2="623.559" y1="1776.27" y2="-343.024" gradientUnits="userSpaceOnUse">
      <stop offset=".323" stop-color="#9e2064"></stop>
      <stop offset=".63" stop-color="#c92037"></stop>
      <stop offset=".751" stop-color="#cd2335"></stop>
      <stop offset="1" stop-color="#e97826"></stop>
    </linearGradient>
    <linearGradient id="g" x1="97.111" x2="518.451" y1="2650.63" y2="197.984" gradientUnits="userSpaceOnUse">
      <stop offset=".323" stop-color="#9e2064"></stop>
      <stop offset=".63" stop-color="#c92037"></stop>
      <stop offset=".751" stop-color="#cd2335"></stop>
      <stop offset="1" stop-color="#e97826"></stop>
    </linearGradient>
    <linearGradient id="h" x1="111.627" x2="554.641" y1="206.274" y2="88.196" gradientUnits="userSpaceOnUse">
      <stop stop-color="#f69923"></stop>
      <stop offset=".312" stop-color="#f79a23"></stop>
      <stop offset=".838" stop-color="#e97826"></stop>
    </linearGradient>
    <linearGradient id="i" x1="-240.803" x2="660.591" y1="1971.63" y2="320.165" gradientUnits="userSpaceOnUse">
      <stop offset=".323" stop-color="#9e2064"></stop>
      <stop offset=".63" stop-color="#c92037"></stop>
      <stop offset=".751" stop-color="#cd2335"></stop>
      <stop offset="1" stop-color="#e97826"></stop>
    </linearGradient>
    <linearGradient id="j" x1="-33.883" x2="373.161" y1="453.425" y2="-230.235" gradientUnits="userSpaceOnUse">
      <stop stop-color="#282662"></stop>
      <stop offset=".095" stop-color="#662e8d"></stop>
      <stop offset=".788" stop-color="#9f2064"></stop>
      <stop offset=".949" stop-color="#cd2032"></stop>
    </linearGradient>
    <linearGradient id="k" x1="97.039" x2="1011.13" y1="1537.91" y2="-9.435" gradientUnits="userSpaceOnUse">
      <stop offset=".323" stop-color="#9e2064"></stop>
      <stop offset=".63" stop-color="#c92037"></stop>
      <stop offset=".751" stop-color="#cd2335"></stop>
      <stop offset="1" stop-color="#e97826"></stop>
    </linearGradient>
    <linearGradient id="l" x1="184.288" x2="685.666" y1="701.749" y2="-44.192" gradientUnits="userSpaceOnUse">
      <stop stop-color="#282662"></stop>
      <stop offset=".095" stop-color="#662e8d"></stop>
      <stop offset=".788" stop-color="#9f2064"></stop>
      <stop offset=".949" stop-color="#cd2032"></stop>
    </linearGradient>
    <linearGradient id="m" x1="-207.111" x2="846.664" y1="1373.6" y2="-314.914" gradientUnits="userSpaceOnUse">
      <stop offset=".323" stop-color="#9e2064"></stop>
      <stop offset=".63" stop-color="#c92037"></stop>
      <stop offset=".751" stop-color="#cd2335"></stop>
      <stop offset="1" stop-color="#e97826"></stop>
    </linearGradient>
    <linearGradient id="n" x1="-629.954" x2="44.916" y1="1060.02" y2="-52.225" gradientUnits="userSpaceOnUse">
      <stop offset=".323" stop-color="#9e2064"></stop>
      <stop offset=".63" stop-color="#c92037"></stop>
      <stop offset=".751" stop-color="#cd2335"></stop>
      <stop offset="1" stop-color="#e97826"></stop>
    </linearGradient>
  </defs>
</svg>